# xmcd
#
# Track frame offsets:
#	150
#	19028
#	40185
#	57658
#	78000
#	96100
#	114905
#	130850
#	153233
#	172850
#	190125
#	209665
#	229153
#	243643
#
# Disc length: 3426 seconds
#
# Revision: 1
# Processed by: cddbd v1.4PL0 Copyright (c) Steve Scherf et al.
# Submitted via: CDmax 1.8
#
DISCID=b00d600e
DTITLE=Vanoni Ornella - Sheherazade
DYEAR=1900
DGENRE=Blues
TTITLE0=Il Mio Trenino
TTITLE1=Rapiscimi
TTITLE2=Per L'Eternità
TTITLE3=Lupa
TTITLE4=Rossetto E Cioccolato
TTITLE5=Sos
TTITLE6=Io Credo
TTITLE7=Sei
TTITLE8=La Rosa
TTITLE9=I Desideri Delle Donne
TTITLE10=Buonanotte Piccolina
TTITLE11=Angeli E No
TTITLE12=Sheherazade
TTITLE13=Per L'eternità (Versione Acustica)
EXTD=
EXTT0=
EXTT1=
EXTT2=
EXTT3=
EXTT4=
EXTT5=
EXTT6=
EXTT7=
EXTT8=
EXTT9=
EXTT10=
EXTT11=
EXTT12=
EXTT13=
PLAYORDER=
